<svg role="img" aria-hidden="true" focusable="false" xmlns="http://www.w3.org/2000/svg" viewBox="0 0 20 20"><path fill="#444" d="M17 .75H3C1.48.75.25 1.98.25 3.5v8c0 1.52 1.23 2.75 2.75 2.75h4.69l4.78 4.78c.14.14.34.22.53.22a.753.753 0 0 0 .75-.75v-4.25H17c1.52 0 2.75-1.23 2.75-2.75v-8c0-1.52-1.23-2.75-2.75-2.75Zm0 1.5c.69 0 1.25.56 1.25 1.25v8c0 .69-.56 1.25-1.25 1.25h-4c-.41 0-.75.34-.75.75v3.19l-3.72-3.72a.75.75 0 0 0-.53-.22H3c-.69 0-1.25-.56-1.25-1.25v-8c0-.69.56-1.25 1.25-1.25"/><path fill="#444" fill-rule="evenodd" d="M6.29 6.35c0-1.02.87-1.85 1.93-1.85.8 0 1.48.46 1.78 1.13.29-.66.98-1.13 1.78-1.13 1.07 0 1.93.83 1.93 1.85 0 2.98-3.71 4.95-3.71 4.95S6.29 9.33 6.29 6.35Z"/></svg>